<svg xmlns="http://www.w3.org/2000/svg" xmlns:xlink="http://www.w3.org/1999/xlink" width="1920" height="7026" viewBox="0 0 1920 7026">
    <defs>
      <clipPath id="clip-path">
        <rect width="167" height="63" fill="none"/>
      </clipPath>
      <clipPath id="clip-Who_are_you_1">
        <rect width="1920" height="7026"/>
      </clipPath>
    </defs>
    <g id="Who_are_you_1" data-name="Who are you? – 1" clip-path="url(#clip-Who_are_you_1)">
      <path id="Polygon_1" data-name="Polygon 1" d="M497.087,338c86.577-150.133,303.25-150.133,389.827,0l302.519,524.6c86.5,150-21.76,337.4-194.913,337.4H389.481c-173.154,0-281.413-187.4-194.913-337.4Z" transform="matrix(0.966, 0.259, -0.259, 0.966, 1579.583, 2132)" fill="#d8f6ff"/>
      <path id="Polygon_2" data-name="Polygon 2" d="M497.087,338c86.577-150.133,303.25-150.133,389.827,0l302.519,524.6c86.5,150-21.76,337.4-194.913,337.4H389.481c-173.154,0-281.413-187.4-194.913-337.4Z" transform="matrix(0.966, 0.259, -0.259, 0.966, -721.841, 1099.5)" fill="#d8f6ff"/>
      <path id="Polygon_3" data-name="Polygon 3" d="M497.087,338c86.577-150.133,303.25-150.133,389.827,0l302.519,524.6c86.5,150-21.76,337.4-194.913,337.4H389.481c-173.154,0-281.413-187.4-194.913-337.4Z" transform="matrix(-0.966, 0.259, -0.259, -0.966, 615.001, 6444.611)" fill="#d8f6ff"/>
      <g id="Repeat_Grid_2" data-name="Repeat Grid 2" transform="translate(155 1068)" opacity="0.48" clip-path="url(#clip-path)">
        <g transform="translate(-320 -1989)">
          <g id="Ellipse_20" data-name="Ellipse 20" transform="translate(320 1989)" fill="#d8f6ff" stroke="#bff1ff" stroke-width="5">
            <circle cx="12" cy="12" r="12" stroke="none"/>
            <circle cx="12" cy="12" r="9.5" fill="none"/>
          </g>
        </g>
        <g transform="translate(-292 -1989)">
          <g id="Ellipse_20-2" data-name="Ellipse 20" transform="translate(320 1989)" fill="#d8f6ff" stroke="#bff1ff" stroke-width="5">
            <circle cx="12" cy="12" r="12" stroke="none"/>
            <circle cx="12" cy="12" r="9.5" fill="none"/>
          </g>
        </g>
        <g transform="translate(-264 -1989)">
          <g id="Ellipse_20-3" data-name="Ellipse 20" transform="translate(320 1989)" fill="#d8f6ff" stroke="#bff1ff" stroke-width="5">
            <circle cx="12" cy="12" r="12" stroke="none"/>
            <circle cx="12" cy="12" r="9.5" fill="none"/>
          </g>
        </g>
        <g transform="translate(-236 -1989)">
          <g id="Ellipse_20-4" data-name="Ellipse 20" transform="translate(320 1989)" fill="#d8f6ff" stroke="#bff1ff" stroke-width="5">
            <circle cx="12" cy="12" r="12" stroke="none"/>
            <circle cx="12" cy="12" r="9.5" fill="none"/>
          </g>
        </g>
        <g transform="translate(-208 -1989)">
          <g id="Ellipse_20-5" data-name="Ellipse 20" transform="translate(320 1989)" fill="#d8f6ff" stroke="#bff1ff" stroke-width="5">
            <circle cx="12" cy="12" r="12" stroke="none"/>
            <circle cx="12" cy="12" r="9.5" fill="none"/>
          </g>
        </g>
        <g transform="translate(-180 -1989)">
          <g id="Ellipse_20-6" data-name="Ellipse 20" transform="translate(320 1989)" fill="#d8f6ff" stroke="#bff1ff" stroke-width="5">
            <circle cx="12" cy="12" r="12" stroke="none"/>
            <circle cx="12" cy="12" r="9.5" fill="none"/>
          </g>
        </g>
        <g transform="translate(-320 -1959)">
          <g id="Ellipse_20-7" data-name="Ellipse 20" transform="translate(320 1989)" fill="#d8f6ff" stroke="#bff1ff" stroke-width="5">
            <circle cx="12" cy="12" r="12" stroke="none"/>
            <circle cx="12" cy="12" r="9.5" fill="none"/>
          </g>
        </g>
        <g transform="translate(-292 -1959)">
          <g id="Ellipse_20-8" data-name="Ellipse 20" transform="translate(320 1989)" fill="#d8f6ff" stroke="#bff1ff" stroke-width="5">
            <circle cx="12" cy="12" r="12" stroke="none"/>
            <circle cx="12" cy="12" r="9.5" fill="none"/>
          </g>
        </g>
        <g transform="translate(-264 -1959)">
          <g id="Ellipse_20-9" data-name="Ellipse 20" transform="translate(320 1989)" fill="#d8f6ff" stroke="#bff1ff" stroke-width="5">
            <circle cx="12" cy="12" r="12" stroke="none"/>
            <circle cx="12" cy="12" r="9.5" fill="none"/>
          </g>
        </g>
        <g transform="translate(-236 -1959)">
          <g id="Ellipse_20-10" data-name="Ellipse 20" transform="translate(320 1989)" fill="#d8f6ff" stroke="#bff1ff" stroke-width="5">
            <circle cx="12" cy="12" r="12" stroke="none"/>
            <circle cx="12" cy="12" r="9.5" fill="none"/>
          </g>
        </g>
        <g transform="translate(-208 -1959)">
          <g id="Ellipse_20-11" data-name="Ellipse 20" transform="translate(320 1989)" fill="#d8f6ff" stroke="#bff1ff" stroke-width="5">
            <circle cx="12" cy="12" r="12" stroke="none"/>
            <circle cx="12" cy="12" r="9.5" fill="none"/>
          </g>
        </g>
        <g transform="translate(-180 -1959)">
          <g id="Ellipse_20-12" data-name="Ellipse 20" transform="translate(320 1989)" fill="#d8f6ff" stroke="#bff1ff" stroke-width="5">
            <circle cx="12" cy="12" r="12" stroke="none"/>
            <circle cx="12" cy="12" r="9.5" fill="none"/>
          </g>
        </g>
      </g>
      <g id="Group_77" data-name="Group 77">
        <g id="Ellipse_20-13" data-name="Ellipse 20" transform="translate(231 1153)" fill="#d8f6ff" stroke="#bff1ff" stroke-width="5" opacity="0.37">
          <circle cx="16" cy="16" r="16" stroke="none"/>
          <circle cx="16" cy="16" r="13.5" fill="none"/>
        </g>
        <g id="Ellipse_20-14" data-name="Ellipse 20" transform="translate(269 1153)" fill="#d8f6ff" stroke="#bff1ff" stroke-width="5" opacity="0.37">
          <circle cx="16" cy="16" r="16" stroke="none"/>
          <circle cx="16" cy="16" r="13.5" fill="none"/>
        </g>
        <g id="Ellipse_20-15" data-name="Ellipse 20" transform="translate(306 1153)" fill="#d8f6ff" stroke="#bff1ff" stroke-width="5" opacity="0.37">
          <circle cx="16" cy="16" r="16" stroke="none"/>
          <circle cx="16" cy="16" r="13.5" fill="none"/>
        </g>
        <g id="Ellipse_20-16" data-name="Ellipse 20" transform="translate(344 1153)" fill="#d8f6ff" stroke="#bff1ff" stroke-width="5" opacity="0.37">
          <circle cx="16" cy="16" r="16" stroke="none"/>
          <circle cx="16" cy="16" r="13.5" fill="none"/>
        </g>
        <g id="Ellipse_20-17" data-name="Ellipse 20" transform="translate(381 1153)" fill="#d8f6ff" stroke="#bff1ff" stroke-width="5" opacity="0.37">
          <circle cx="16" cy="16" r="16" stroke="none"/>
          <circle cx="16" cy="16" r="13.5" fill="none"/>
        </g>
        <g id="Ellipse_20-18" data-name="Ellipse 20" transform="translate(419 1153)" fill="#d8f6ff" stroke="#bff1ff" stroke-width="5" opacity="0.37">
          <circle cx="16" cy="16" r="16" stroke="none"/>
          <circle cx="16" cy="16" r="13.5" fill="none"/>
        </g>
        <g id="Ellipse_20-19" data-name="Ellipse 20" transform="translate(231 1193)" fill="#d8f6ff" stroke="#bff1ff" stroke-width="5" opacity="0.37">
          <circle cx="16" cy="16" r="16" stroke="none"/>
          <circle cx="16" cy="16" r="13.5" fill="none"/>
        </g>
        <g id="Ellipse_20-20" data-name="Ellipse 20" transform="translate(269 1193)" fill="#d8f6ff" stroke="#bff1ff" stroke-width="5" opacity="0.37">
          <circle cx="16" cy="16" r="16" stroke="none"/>
          <circle cx="16" cy="16" r="13.5" fill="none"/>
        </g>
        <g id="Ellipse_20-21" data-name="Ellipse 20" transform="translate(306 1193)" fill="#d8f6ff" stroke="#bff1ff" stroke-width="5" opacity="0.37">
          <circle cx="16" cy="16" r="16" stroke="none"/>
          <circle cx="16" cy="16" r="13.5" fill="none"/>
        </g>
        <g id="Ellipse_20-22" data-name="Ellipse 20" transform="translate(344 1193)" fill="#d8f6ff" stroke="#bff1ff" stroke-width="5" opacity="0.37">
          <circle cx="16" cy="16" r="16" stroke="none"/>
          <circle cx="16" cy="16" r="13.5" fill="none"/>
        </g>
        <g id="Ellipse_20-23" data-name="Ellipse 20" transform="translate(381 1193)" fill="#d8f6ff" stroke="#bff1ff" stroke-width="5" opacity="0.37">
          <circle cx="16" cy="16" r="16" stroke="none"/>
          <circle cx="16" cy="16" r="13.5" fill="none"/>
        </g>
        <g id="Ellipse_20-24" data-name="Ellipse 20" transform="translate(419 1193)" fill="#d8f6ff" stroke="#bff1ff" stroke-width="5" opacity="0.37">
          <circle cx="16" cy="16" r="16" stroke="none"/>
          <circle cx="16" cy="16" r="13.5" fill="none"/>
        </g>
      </g>
      <g id="Group_78" data-name="Group 78" transform="translate(1347.18 350.503)" opacity="0.09">
        <g id="Ellipse_20-25" data-name="Ellipse 20" transform="translate(-0.18 0.245)" fill="#d8f6ff" stroke="#8bbecc" stroke-width="5" stroke-dasharray="4" opacity="0.37">
          <circle cx="12.5" cy="12.5" r="12.5" stroke="none"/>
          <circle cx="12.5" cy="12.5" r="10" fill="none"/>
        </g>
        <g id="Ellipse_20-26" data-name="Ellipse 20" transform="translate(29.82 0.245)" fill="#d8f6ff" stroke="#8bbecc" stroke-width="5" stroke-dasharray="4" opacity="0.37">
          <circle cx="12.5" cy="12.5" r="12.5" stroke="none"/>
          <circle cx="12.5" cy="12.5" r="10" fill="none"/>
        </g>
        <g id="Ellipse_20-27" data-name="Ellipse 20" transform="translate(58.82 0.245)" fill="#d8f6ff" stroke="#8bbecc" stroke-width="5" stroke-dasharray="4" opacity="0.37">
          <circle cx="12.5" cy="12.5" r="12.5" stroke="none"/>
          <circle cx="12.5" cy="12.5" r="10" fill="none"/>
        </g>
        <g id="Ellipse_20-28" data-name="Ellipse 20" transform="translate(88.82 0.245)" fill="#d8f6ff" stroke="#8bbecc" stroke-width="5" stroke-dasharray="4" opacity="0.37">
          <circle cx="12.5" cy="12.5" r="12.5" stroke="none"/>
          <circle cx="12.5" cy="12.5" r="10" fill="none"/>
        </g>
        <g id="Ellipse_20-29" data-name="Ellipse 20" transform="translate(117.82 0.245)" fill="#d8f6ff" stroke="#8bbecc" stroke-width="5" stroke-dasharray="4" opacity="0.37">
          <circle cx="12.5" cy="12.5" r="12.5" stroke="none"/>
          <circle cx="12.5" cy="12.5" r="10" fill="none"/>
        </g>
        <g id="Ellipse_20-30" data-name="Ellipse 20" transform="translate(147.82 0.245)" fill="#d8f6ff" stroke="#8bbecc" stroke-width="5" stroke-dasharray="4" opacity="0.37">
          <circle cx="12.5" cy="12.5" r="12.5" stroke="none"/>
          <circle cx="12.5" cy="12.5" r="10" fill="none"/>
        </g>
        <g id="Ellipse_20-31" data-name="Ellipse 20" transform="translate(-0.18 31.245)" fill="#d8f6ff" stroke="#8bbecc" stroke-width="5" stroke-dasharray="4" opacity="0.37">
          <circle cx="12.5" cy="12.5" r="12.5" stroke="none"/>
          <circle cx="12.5" cy="12.5" r="10" fill="none"/>
        </g>
        <g id="Ellipse_20-32" data-name="Ellipse 20" transform="translate(29.82 31.245)" fill="#d8f6ff" stroke="#8bbecc" stroke-width="5" stroke-dasharray="4" opacity="0.37">
          <circle cx="12.5" cy="12.5" r="12.5" stroke="none"/>
          <circle cx="12.5" cy="12.5" r="10" fill="none"/>
        </g>
        <g id="Ellipse_20-33" data-name="Ellipse 20" transform="translate(58.82 31.245)" fill="#d8f6ff" stroke="#8bbecc" stroke-width="5" stroke-dasharray="4" opacity="0.37">
          <circle cx="12.5" cy="12.5" r="12.5" stroke="none"/>
          <circle cx="12.5" cy="12.5" r="10" fill="none"/>
        </g>
        <g id="Ellipse_20-34" data-name="Ellipse 20" transform="translate(88.82 31.245)" fill="#d8f6ff" stroke="#8bbecc" stroke-width="5" stroke-dasharray="4" opacity="0.37">
          <circle cx="12.5" cy="12.5" r="12.5" stroke="none"/>
          <circle cx="12.5" cy="12.5" r="10" fill="none"/>
        </g>
        <g id="Ellipse_20-35" data-name="Ellipse 20" transform="translate(117.82 31.245)" fill="#d8f6ff" stroke="#8bbecc" stroke-width="5" stroke-dasharray="4" opacity="0.37">
          <circle cx="12.5" cy="12.5" r="12.5" stroke="none"/>
          <circle cx="12.5" cy="12.5" r="10" fill="none"/>
        </g>
        <g id="Ellipse_20-36" data-name="Ellipse 20" transform="translate(147.82 31.245)" fill="#d8f6ff" stroke="#8bbecc" stroke-width="5" stroke-dasharray="4" opacity="0.37">
          <circle cx="12.5" cy="12.5" r="12.5" stroke="none"/>
          <circle cx="12.5" cy="12.5" r="10" fill="none"/>
        </g>
      </g>
      <g id="Group_92" data-name="Group 92" transform="translate(45 -308.982)" opacity="0.09">
        <g id="Ellipse_20-37" data-name="Ellipse 20" transform="translate(231 1152.982)" fill="#d8f6ff" stroke="#8bbecc" stroke-width="5" stroke-dasharray="4" opacity="0.37">
          <circle cx="8.5" cy="8.5" r="8.5" stroke="none"/>
          <circle cx="8.5" cy="8.5" r="6" fill="none"/>
        </g>
        <g id="Ellipse_20-38" data-name="Ellipse 20" transform="translate(251 1152.982)" fill="#d8f6ff" stroke="#8bbecc" stroke-width="5" stroke-dasharray="4" opacity="0.37">
          <circle cx="8.5" cy="8.5" r="8.5" stroke="none"/>
          <circle cx="8.5" cy="8.5" r="6" fill="none"/>
        </g>
        <g id="Ellipse_20-39" data-name="Ellipse 20" transform="translate(271 1152.982)" fill="#d8f6ff" stroke="#8bbecc" stroke-width="5" stroke-dasharray="4" opacity="0.37">
          <ellipse cx="8" cy="8.5" rx="8" ry="8.5" stroke="none"/>
          <ellipse cx="8" cy="8.5" rx="5.5" ry="6" fill="none"/>
        </g>
        <g id="Ellipse_20-40" data-name="Ellipse 20" transform="translate(291 1152.982)" fill="#d8f6ff" stroke="#8bbecc" stroke-width="5" stroke-dasharray="4" opacity="0.37">
          <ellipse cx="8" cy="8.5" rx="8" ry="8.5" stroke="none"/>
          <ellipse cx="8" cy="8.5" rx="5.5" ry="6" fill="none"/>
        </g>
        <g id="Ellipse_20-41" data-name="Ellipse 20" transform="translate(310 1152.982)" fill="#d8f6ff" stroke="#8bbecc" stroke-width="5" stroke-dasharray="4" opacity="0.37">
          <circle cx="8.5" cy="8.5" r="8.5" stroke="none"/>
          <circle cx="8.5" cy="8.5" r="6" fill="none"/>
        </g>
        <g id="Ellipse_20-42" data-name="Ellipse 20" transform="translate(330 1152.982)" fill="#d8f6ff" stroke="#8bbecc" stroke-width="5" stroke-dasharray="4" opacity="0.37">
          <circle cx="8.5" cy="8.5" r="8.5" stroke="none"/>
          <circle cx="8.5" cy="8.5" r="6" fill="none"/>
        </g>
        <g id="Ellipse_20-43" data-name="Ellipse 20" transform="translate(231 1173.982)" fill="#d8f6ff" stroke="#8bbecc" stroke-width="5" stroke-dasharray="4" opacity="0.37">
          <circle cx="8.5" cy="8.5" r="8.5" stroke="none"/>
          <circle cx="8.5" cy="8.5" r="6" fill="none"/>
        </g>
        <g id="Ellipse_20-44" data-name="Ellipse 20" transform="translate(251 1173.982)" fill="#d8f6ff" stroke="#8bbecc" stroke-width="5" stroke-dasharray="4" opacity="0.37">
          <circle cx="8.5" cy="8.5" r="8.5" stroke="none"/>
          <circle cx="8.5" cy="8.5" r="6" fill="none"/>
        </g>
        <g id="Ellipse_20-45" data-name="Ellipse 20" transform="translate(271 1173.982)" fill="#d8f6ff" stroke="#8bbecc" stroke-width="5" stroke-dasharray="4" opacity="0.37">
          <ellipse cx="8" cy="8.5" rx="8" ry="8.5" stroke="none"/>
          <ellipse cx="8" cy="8.5" rx="5.5" ry="6" fill="none"/>
        </g>
        <g id="Ellipse_20-46" data-name="Ellipse 20" transform="translate(291 1173.982)" fill="#d8f6ff" stroke="#8bbecc" stroke-width="5" stroke-dasharray="4" opacity="0.37">
          <ellipse cx="8" cy="8.5" rx="8" ry="8.5" stroke="none"/>
          <ellipse cx="8" cy="8.5" rx="5.5" ry="6" fill="none"/>
        </g>
        <g id="Ellipse_20-47" data-name="Ellipse 20" transform="translate(310 1173.982)" fill="#d8f6ff" stroke="#8bbecc" stroke-width="5" stroke-dasharray="4" opacity="0.37">
          <circle cx="8.5" cy="8.5" r="8.5" stroke="none"/>
          <circle cx="8.5" cy="8.5" r="6" fill="none"/>
        </g>
        <g id="Ellipse_20-48" data-name="Ellipse 20" transform="translate(330 1173.982)" fill="#d8f6ff" stroke="#8bbecc" stroke-width="5" stroke-dasharray="4" opacity="0.37">
          <circle cx="8.5" cy="8.5" r="8.5" stroke="none"/>
          <circle cx="8.5" cy="8.5" r="6" fill="none"/>
        </g>
      </g>
      <g id="Repeat_Grid_3" data-name="Repeat Grid 3" transform="translate(1269 2099)" opacity="0.48" clip-path="url(#clip-path)">
        <g transform="translate(-320 -1989)">
          <g id="Ellipse_20-49" data-name="Ellipse 20" transform="translate(320 1989)" fill="#d8f6ff" stroke="#bff1ff" stroke-width="5">
            <circle cx="12" cy="12" r="12" stroke="none"/>
            <circle cx="12" cy="12" r="9.5" fill="none"/>
          </g>
        </g>
        <g transform="translate(-292 -1989)">
          <g id="Ellipse_20-50" data-name="Ellipse 20" transform="translate(320 1989)" fill="#d8f6ff" stroke="#bff1ff" stroke-width="5">
            <circle cx="12" cy="12" r="12" stroke="none"/>
            <circle cx="12" cy="12" r="9.5" fill="none"/>
          </g>
        </g>
        <g transform="translate(-264 -1989)">
          <g id="Ellipse_20-51" data-name="Ellipse 20" transform="translate(320 1989)" fill="#d8f6ff" stroke="#bff1ff" stroke-width="5">
            <circle cx="12" cy="12" r="12" stroke="none"/>
            <circle cx="12" cy="12" r="9.5" fill="none"/>
          </g>
        </g>
        <g transform="translate(-236 -1989)">
          <g id="Ellipse_20-52" data-name="Ellipse 20" transform="translate(320 1989)" fill="#d8f6ff" stroke="#bff1ff" stroke-width="5">
            <circle cx="12" cy="12" r="12" stroke="none"/>
            <circle cx="12" cy="12" r="9.5" fill="none"/>
          </g>
        </g>
        <g transform="translate(-208 -1989)">
          <g id="Ellipse_20-53" data-name="Ellipse 20" transform="translate(320 1989)" fill="#d8f6ff" stroke="#bff1ff" stroke-width="5">
            <circle cx="12" cy="12" r="12" stroke="none"/>
            <circle cx="12" cy="12" r="9.5" fill="none"/>
          </g>
        </g>
        <g transform="translate(-180 -1989)">
          <g id="Ellipse_20-54" data-name="Ellipse 20" transform="translate(320 1989)" fill="#d8f6ff" stroke="#bff1ff" stroke-width="5">
            <circle cx="12" cy="12" r="12" stroke="none"/>
            <circle cx="12" cy="12" r="9.5" fill="none"/>
          </g>
        </g>
        <g transform="translate(-320 -1959)">
          <g id="Ellipse_20-55" data-name="Ellipse 20" transform="translate(320 1989)" fill="#d8f6ff" stroke="#bff1ff" stroke-width="5">
            <circle cx="12" cy="12" r="12" stroke="none"/>
            <circle cx="12" cy="12" r="9.5" fill="none"/>
          </g>
        </g>
        <g transform="translate(-292 -1959)">
          <g id="Ellipse_20-56" data-name="Ellipse 20" transform="translate(320 1989)" fill="#d8f6ff" stroke="#bff1ff" stroke-width="5">
            <circle cx="12" cy="12" r="12" stroke="none"/>
            <circle cx="12" cy="12" r="9.5" fill="none"/>
          </g>
        </g>
        <g transform="translate(-264 -1959)">
          <g id="Ellipse_20-57" data-name="Ellipse 20" transform="translate(320 1989)" fill="#d8f6ff" stroke="#bff1ff" stroke-width="5">
            <circle cx="12" cy="12" r="12" stroke="none"/>
            <circle cx="12" cy="12" r="9.5" fill="none"/>
          </g>
        </g>
        <g transform="translate(-236 -1959)">
          <g id="Ellipse_20-58" data-name="Ellipse 20" transform="translate(320 1989)" fill="#d8f6ff" stroke="#bff1ff" stroke-width="5">
            <circle cx="12" cy="12" r="12" stroke="none"/>
            <circle cx="12" cy="12" r="9.5" fill="none"/>
          </g>
        </g>
        <g transform="translate(-208 -1959)">
          <g id="Ellipse_20-59" data-name="Ellipse 20" transform="translate(320 1989)" fill="#d8f6ff" stroke="#bff1ff" stroke-width="5">
            <circle cx="12" cy="12" r="12" stroke="none"/>
            <circle cx="12" cy="12" r="9.5" fill="none"/>
          </g>
        </g>
        <g transform="translate(-180 -1959)">
          <g id="Ellipse_20-60" data-name="Ellipse 20" transform="translate(320 1989)" fill="#d8f6ff" stroke="#bff1ff" stroke-width="5">
            <circle cx="12" cy="12" r="12" stroke="none"/>
            <circle cx="12" cy="12" r="9.5" fill="none"/>
          </g>
        </g>
        <g transform="translate(-320 -1929)">
          <g id="Ellipse_20-61" data-name="Ellipse 20" transform="translate(320 1989)" fill="#d8f6ff" stroke="#bff1ff" stroke-width="5">
            <circle cx="12" cy="12" r="12" stroke="none"/>
            <circle cx="12" cy="12" r="9.5" fill="none"/>
          </g>
        </g>
        <g transform="translate(-292 -1929)">
          <g id="Ellipse_20-62" data-name="Ellipse 20" transform="translate(320 1989)" fill="#d8f6ff" stroke="#bff1ff" stroke-width="5">
            <circle cx="12" cy="12" r="12" stroke="none"/>
            <circle cx="12" cy="12" r="9.5" fill="none"/>
          </g>
        </g>
        <g transform="translate(-264 -1929)">
          <g id="Ellipse_20-63" data-name="Ellipse 20" transform="translate(320 1989)" fill="#d8f6ff" stroke="#bff1ff" stroke-width="5">
            <circle cx="12" cy="12" r="12" stroke="none"/>
            <circle cx="12" cy="12" r="9.5" fill="none"/>
          </g>
        </g>
        <g transform="translate(-236 -1929)">
          <g id="Ellipse_20-64" data-name="Ellipse 20" transform="translate(320 1989)" fill="#d8f6ff" stroke="#bff1ff" stroke-width="5">
            <circle cx="12" cy="12" r="12" stroke="none"/>
            <circle cx="12" cy="12" r="9.5" fill="none"/>
          </g>
        </g>
        <g transform="translate(-208 -1929)">
          <g id="Ellipse_20-65" data-name="Ellipse 20" transform="translate(320 1989)" fill="#d8f6ff" stroke="#bff1ff" stroke-width="5">
            <circle cx="12" cy="12" r="12" stroke="none"/>
            <circle cx="12" cy="12" r="9.5" fill="none"/>
          </g>
        </g>
        <g transform="translate(-180 -1929)">
          <g id="Ellipse_20-66" data-name="Ellipse 20" transform="translate(320 1989)" fill="#d8f6ff" stroke="#bff1ff" stroke-width="5">
            <circle cx="12" cy="12" r="12" stroke="none"/>
            <circle cx="12" cy="12" r="9.5" fill="none"/>
          </g>
        </g>
      </g>
      <g id="Repeat_Grid_4" data-name="Repeat Grid 4" transform="translate(319 3039)" opacity="0.48" clip-path="url(#clip-path)">
        <g transform="translate(-320 -1989)">
          <g id="Ellipse_20-67" data-name="Ellipse 20" transform="translate(320 1989)" fill="#eff2f3" stroke="#fff" stroke-width="5">
            <circle cx="12" cy="12" r="12" stroke="none"/>
            <circle cx="12" cy="12" r="9.5" fill="none"/>
          </g>
        </g>
        <g transform="translate(-292 -1989)">
          <g id="Ellipse_20-68" data-name="Ellipse 20" transform="translate(320 1989)" fill="#eff2f3" stroke="#fff" stroke-width="5">
            <circle cx="12" cy="12" r="12" stroke="none"/>
            <circle cx="12" cy="12" r="9.5" fill="none"/>
          </g>
        </g>
        <g transform="translate(-264 -1989)">
          <g id="Ellipse_20-69" data-name="Ellipse 20" transform="translate(320 1989)" fill="#eff2f3" stroke="#fff" stroke-width="5">
            <circle cx="12" cy="12" r="12" stroke="none"/>
            <circle cx="12" cy="12" r="9.5" fill="none"/>
          </g>
        </g>
        <g transform="translate(-236 -1989)">
          <g id="Ellipse_20-70" data-name="Ellipse 20" transform="translate(320 1989)" fill="#eff2f3" stroke="#fff" stroke-width="5">
            <circle cx="12" cy="12" r="12" stroke="none"/>
            <circle cx="12" cy="12" r="9.5" fill="none"/>
          </g>
        </g>
        <g transform="translate(-208 -1989)">
          <g id="Ellipse_20-71" data-name="Ellipse 20" transform="translate(320 1989)" fill="#eff2f3" stroke="#fff" stroke-width="5">
            <circle cx="12" cy="12" r="12" stroke="none"/>
            <circle cx="12" cy="12" r="9.5" fill="none"/>
          </g>
        </g>
        <g transform="translate(-180 -1989)">
          <g id="Ellipse_20-72" data-name="Ellipse 20" transform="translate(320 1989)" fill="#eff2f3" stroke="#fff" stroke-width="5">
            <circle cx="12" cy="12" r="12" stroke="none"/>
            <circle cx="12" cy="12" r="9.5" fill="none"/>
          </g>
        </g>
        <g transform="translate(-320 -1959)">
          <g id="Ellipse_20-73" data-name="Ellipse 20" transform="translate(320 1989)" fill="#eff2f3" stroke="#fff" stroke-width="5">
            <circle cx="12" cy="12" r="12" stroke="none"/>
            <circle cx="12" cy="12" r="9.5" fill="none"/>
          </g>
        </g>
        <g transform="translate(-292 -1959)">
          <g id="Ellipse_20-74" data-name="Ellipse 20" transform="translate(320 1989)" fill="#eff2f3" stroke="#fff" stroke-width="5">
            <circle cx="12" cy="12" r="12" stroke="none"/>
            <circle cx="12" cy="12" r="9.5" fill="none"/>
          </g>
        </g>
        <g transform="translate(-264 -1959)">
          <g id="Ellipse_20-75" data-name="Ellipse 20" transform="translate(320 1989)" fill="#eff2f3" stroke="#fff" stroke-width="5">
            <circle cx="12" cy="12" r="12" stroke="none"/>
            <circle cx="12" cy="12" r="9.5" fill="none"/>
          </g>
        </g>
        <g transform="translate(-236 -1959)">
          <g id="Ellipse_20-76" data-name="Ellipse 20" transform="translate(320 1989)" fill="#eff2f3" stroke="#fff" stroke-width="5">
            <circle cx="12" cy="12" r="12" stroke="none"/>
            <circle cx="12" cy="12" r="9.5" fill="none"/>
          </g>
        </g>
        <g transform="translate(-208 -1959)">
          <g id="Ellipse_20-77" data-name="Ellipse 20" transform="translate(320 1989)" fill="#eff2f3" stroke="#fff" stroke-width="5">
            <circle cx="12" cy="12" r="12" stroke="none"/>
            <circle cx="12" cy="12" r="9.5" fill="none"/>
          </g>
        </g>
        <g transform="translate(-180 -1959)">
          <g id="Ellipse_20-78" data-name="Ellipse 20" transform="translate(320 1989)" fill="#eff2f3" stroke="#fff" stroke-width="5">
            <circle cx="12" cy="12" r="12" stroke="none"/>
            <circle cx="12" cy="12" r="9.5" fill="none"/>
          </g>
        </g>
        <g transform="translate(-320 -1929)">
          <g id="Ellipse_20-79" data-name="Ellipse 20" transform="translate(320 1989)" fill="#eff2f3" stroke="#fff" stroke-width="5">
            <circle cx="12" cy="12" r="12" stroke="none"/>
            <circle cx="12" cy="12" r="9.5" fill="none"/>
          </g>
        </g>
        <g transform="translate(-292 -1929)">
          <g id="Ellipse_20-80" data-name="Ellipse 20" transform="translate(320 1989)" fill="#eff2f3" stroke="#fff" stroke-width="5">
            <circle cx="12" cy="12" r="12" stroke="none"/>
            <circle cx="12" cy="12" r="9.5" fill="none"/>
          </g>
        </g>
        <g transform="translate(-264 -1929)">
          <g id="Ellipse_20-81" data-name="Ellipse 20" transform="translate(320 1989)" fill="#eff2f3" stroke="#fff" stroke-width="5">
            <circle cx="12" cy="12" r="12" stroke="none"/>
            <circle cx="12" cy="12" r="9.5" fill="none"/>
          </g>
        </g>
        <g transform="translate(-236 -1929)">
          <g id="Ellipse_20-82" data-name="Ellipse 20" transform="translate(320 1989)" fill="#eff2f3" stroke="#fff" stroke-width="5">
            <circle cx="12" cy="12" r="12" stroke="none"/>
            <circle cx="12" cy="12" r="9.5" fill="none"/>
          </g>
        </g>
        <g transform="translate(-208 -1929)">
          <g id="Ellipse_20-83" data-name="Ellipse 20" transform="translate(320 1989)" fill="#eff2f3" stroke="#fff" stroke-width="5">
            <circle cx="12" cy="12" r="12" stroke="none"/>
            <circle cx="12" cy="12" r="9.5" fill="none"/>
          </g>
        </g>
        <g transform="translate(-180 -1929)">
          <g id="Ellipse_20-84" data-name="Ellipse 20" transform="translate(320 1989)" fill="#eff2f3" stroke="#fff" stroke-width="5">
            <circle cx="12" cy="12" r="12" stroke="none"/>
            <circle cx="12" cy="12" r="9.5" fill="none"/>
          </g>
        </g>
      </g>
      <g id="Group_84" data-name="Group 84" transform="translate(1344 2001)">
        <g id="Ellipse_20-85" data-name="Ellipse 20" transform="translate(0 40)" fill="#d8f6ff" stroke="#bff1ff" stroke-width="5" opacity="0.37">
          <circle cx="16" cy="16" r="16" stroke="none"/>
          <circle cx="16" cy="16" r="13.5" fill="none"/>
        </g>
        <g id="Ellipse_20-86" data-name="Ellipse 20" transform="translate(38 40)" fill="#d8f6ff" stroke="#bff1ff" stroke-width="5" opacity="0.37">
          <circle cx="16" cy="16" r="16" stroke="none"/>
          <circle cx="16" cy="16" r="13.5" fill="none"/>
        </g>
        <g id="Ellipse_20-87" data-name="Ellipse 20" transform="translate(75 40)" fill="#d8f6ff" stroke="#bff1ff" stroke-width="5" opacity="0.37">
          <circle cx="16" cy="16" r="16" stroke="none"/>
          <circle cx="16" cy="16" r="13.5" fill="none"/>
        </g>
        <g id="Ellipse_20-88" data-name="Ellipse 20" transform="translate(113 40)" fill="#d8f6ff" stroke="#bff1ff" stroke-width="5" opacity="0.37">
          <circle cx="16" cy="16" r="16" stroke="none"/>
          <circle cx="16" cy="16" r="13.5" fill="none"/>
        </g>
        <g id="Ellipse_20-89" data-name="Ellipse 20" transform="translate(150 40)" fill="#d8f6ff" stroke="#bff1ff" stroke-width="5" opacity="0.37">
          <circle cx="16" cy="16" r="16" stroke="none"/>
          <circle cx="16" cy="16" r="13.5" fill="none"/>
        </g>
        <g id="Ellipse_20-90" data-name="Ellipse 20" transform="translate(188 40)" fill="#d8f6ff" stroke="#bff1ff" stroke-width="5" opacity="0.37">
          <circle cx="16" cy="16" r="16" stroke="none"/>
          <circle cx="16" cy="16" r="13.5" fill="none"/>
        </g>
        <g id="Ellipse_20-91" data-name="Ellipse 20" fill="#d8f6ff" stroke="#bff1ff" stroke-width="5" opacity="0.37">
          <circle cx="16" cy="16" r="16" stroke="none"/>
          <circle cx="16" cy="16" r="13.5" fill="none"/>
        </g>
        <g id="Ellipse_20-92" data-name="Ellipse 20" transform="translate(38)" fill="#d8f6ff" stroke="#bff1ff" stroke-width="5" opacity="0.37">
          <circle cx="16" cy="16" r="16" stroke="none"/>
          <circle cx="16" cy="16" r="13.5" fill="none"/>
        </g>
        <g id="Ellipse_20-93" data-name="Ellipse 20" transform="translate(75)" fill="#d8f6ff" stroke="#bff1ff" stroke-width="5" opacity="0.37">
          <circle cx="16" cy="16" r="16" stroke="none"/>
          <circle cx="16" cy="16" r="13.5" fill="none"/>
        </g>
        <g id="Ellipse_20-94" data-name="Ellipse 20" transform="translate(113)" fill="#d8f6ff" stroke="#bff1ff" stroke-width="5" opacity="0.37">
          <circle cx="16" cy="16" r="16" stroke="none"/>
          <circle cx="16" cy="16" r="13.5" fill="none"/>
        </g>
        <g id="Ellipse_20-95" data-name="Ellipse 20" transform="translate(150)" fill="#d8f6ff" stroke="#bff1ff" stroke-width="5" opacity="0.37">
          <circle cx="16" cy="16" r="16" stroke="none"/>
          <circle cx="16" cy="16" r="13.5" fill="none"/>
        </g>
        <g id="Ellipse_20-96" data-name="Ellipse 20" transform="translate(188)" fill="#d8f6ff" stroke="#bff1ff" stroke-width="5" opacity="0.37">
          <circle cx="16" cy="16" r="16" stroke="none"/>
          <circle cx="16" cy="16" r="13.5" fill="none"/>
        </g>
      </g>
      <g id="Group_97" data-name="Group 97" transform="translate(395 2945)">
        <g id="Ellipse_20-97" data-name="Ellipse 20" transform="translate(0 40)" fill="#eff2f3" stroke="#fff" stroke-width="5" opacity="0.37">
          <circle cx="16" cy="16" r="16" stroke="none"/>
          <circle cx="16" cy="16" r="13.5" fill="none"/>
        </g>
        <g id="Ellipse_20-98" data-name="Ellipse 20" transform="translate(38 40)" fill="#eff2f3" stroke="#fff" stroke-width="5" opacity="0.37">
          <circle cx="16" cy="16" r="16" stroke="none"/>
          <circle cx="16" cy="16" r="13.5" fill="none"/>
        </g>
        <g id="Ellipse_20-99" data-name="Ellipse 20" transform="translate(75 40)" fill="#eff2f3" stroke="#fff" stroke-width="5" opacity="0.37">
          <circle cx="16" cy="16" r="16" stroke="none"/>
          <circle cx="16" cy="16" r="13.5" fill="none"/>
        </g>
        <g id="Ellipse_20-100" data-name="Ellipse 20" transform="translate(113 40)" fill="#eff2f3" stroke="#fff" stroke-width="5" opacity="0.37">
          <circle cx="16" cy="16" r="16" stroke="none"/>
          <circle cx="16" cy="16" r="13.5" fill="none"/>
        </g>
        <g id="Ellipse_20-101" data-name="Ellipse 20" transform="translate(150 40)" fill="#eff2f3" stroke="#fff" stroke-width="5" opacity="0.37">
          <circle cx="16" cy="16" r="16" stroke="none"/>
          <circle cx="16" cy="16" r="13.5" fill="none"/>
        </g>
        <g id="Ellipse_20-102" data-name="Ellipse 20" transform="translate(188 40)" fill="#eff2f3" stroke="#fff" stroke-width="5" opacity="0.37">
          <circle cx="16" cy="16" r="16" stroke="none"/>
          <circle cx="16" cy="16" r="13.5" fill="none"/>
        </g>
        <g id="Ellipse_20-103" data-name="Ellipse 20" fill="#eff2f3" stroke="#fff" stroke-width="5" opacity="0.37">
          <circle cx="16" cy="16" r="16" stroke="none"/>
          <circle cx="16" cy="16" r="13.5" fill="none"/>
        </g>
        <g id="Ellipse_20-104" data-name="Ellipse 20" transform="translate(38)" fill="#eff2f3" stroke="#fff" stroke-width="5" opacity="0.37">
          <circle cx="16" cy="16" r="16" stroke="none"/>
          <circle cx="16" cy="16" r="13.5" fill="none"/>
        </g>
        <g id="Ellipse_20-105" data-name="Ellipse 20" transform="translate(75)" fill="#eff2f3" stroke="#fff" stroke-width="5" opacity="0.37">
          <circle cx="16" cy="16" r="16" stroke="none"/>
          <circle cx="16" cy="16" r="13.5" fill="none"/>
        </g>
        <g id="Ellipse_20-106" data-name="Ellipse 20" transform="translate(113)" fill="#eff2f3" stroke="#fff" stroke-width="5" opacity="0.37">
          <circle cx="16" cy="16" r="16" stroke="none"/>
          <circle cx="16" cy="16" r="13.5" fill="none"/>
        </g>
        <g id="Ellipse_20-107" data-name="Ellipse 20" transform="translate(150)" fill="#eff2f3" stroke="#fff" stroke-width="5" opacity="0.37">
          <circle cx="16" cy="16" r="16" stroke="none"/>
          <circle cx="16" cy="16" r="13.5" fill="none"/>
        </g>
        <g id="Ellipse_20-108" data-name="Ellipse 20" transform="translate(188)" fill="#eff2f3" stroke="#fff" stroke-width="5" opacity="0.37">
          <circle cx="16" cy="16" r="16" stroke="none"/>
          <circle cx="16" cy="16" r="13.5" fill="none"/>
        </g>
      </g>
      <text id="_" data-name="&quot;" transform="translate(517 4887) rotate(180)" fill="#d8f6ff" font-size="523" font-family="OldAnticOutline, Old Antic Outline" opacity="0.34"><tspan x="0" y="0">&quot;</tspan></text>
      <text id="_2" data-name="&quot;" transform="matrix(1, 0, 0, -1, 1431, 5160)" fill="#d8f6ff" font-size="249" font-family="OldAnticOutline, Old Antic Outline" opacity="0.44"><tspan x="0" y="0">&quot;</tspan></text>
      <g id="Group_113" data-name="Group 113">
        <g id="Group_108" data-name="Group 108" transform="translate(-42.269 29.732)">
          <line id="Line_14" data-name="Line 14" x2="21.463" y2="21.463" transform="translate(269.269 1889.268)" fill="none" stroke="#d8f6ff" stroke-linecap="round" stroke-width="12"/>
          <line id="Line_15" data-name="Line 15" x1="21.463" y2="21.463" transform="translate(269.269 1889.268)" fill="none" stroke="#d8f6ff" stroke-linecap="round" stroke-width="12"/>
        </g>
        <g id="Group_110" data-name="Group 110" transform="translate(112.731 29.732)">
          <line id="Line_14-2" data-name="Line 14" x2="21.463" y2="21.463" transform="translate(269.269 1889.268)" fill="none" stroke="#d8f6ff" stroke-linecap="round" stroke-width="12"/>
          <line id="Line_15-2" data-name="Line 15" x1="21.463" y2="21.463" transform="translate(269.269 1889.268)" fill="none" stroke="#d8f6ff" stroke-linecap="round" stroke-width="12"/>
        </g>
        <g id="Group_109" data-name="Group 109" transform="translate(19.731 13.732)">
          <line id="Line_14-3" data-name="Line 14" x2="52.021" y2="52.021" transform="translate(269.269 1889.268)" fill="none" stroke="#d8f6ff" stroke-linecap="round" stroke-width="21"/>
          <line id="Line_15-3" data-name="Line 15" x1="52.021" y2="52.021" transform="translate(269.269 1889.268)" fill="none" stroke="#d8f6ff" stroke-linecap="round" stroke-width="21"/>
        </g>
      </g>
      <g id="Group_111" data-name="Group 111" transform="translate(1387 -570)">
        <g id="Ellipse_25" data-name="Ellipse 25" transform="translate(218 1756)" fill="#fff" stroke="#d8f6ff" stroke-width="12">
          <circle cx="30" cy="30" r="30" stroke="none"/>
          <circle cx="30" cy="30" r="24" fill="none"/>
        </g>
        <g id="Ellipse_26" data-name="Ellipse 26" transform="translate(185 1798)" fill="#fff" stroke="#d8f6ff" stroke-width="12">
          <circle cx="18" cy="18" r="18" stroke="none"/>
          <circle cx="18" cy="18" r="12" fill="none"/>
        </g>
      </g>
      <g id="Group_114" data-name="Group 114" transform="translate(1264 4655)">
        <g id="Group_108-2" data-name="Group 108" transform="translate(-42.269 29.732)">
          <line id="Line_14-4" data-name="Line 14" x2="21.463" y2="21.463" transform="translate(269.269 1889.268)" fill="none" stroke="#d8f6ff" stroke-linecap="round" stroke-width="12"/>
          <line id="Line_15-4" data-name="Line 15" x1="21.463" y2="21.463" transform="translate(269.269 1889.268)" fill="none" stroke="#d8f6ff" stroke-linecap="round" stroke-width="12"/>
        </g>
        <g id="Group_110-2" data-name="Group 110" transform="translate(112.731 29.732)">
          <line id="Line_14-5" data-name="Line 14" x2="21.463" y2="21.463" transform="translate(269.269 1889.268)" fill="none" stroke="#d8f6ff" stroke-linecap="round" stroke-width="12"/>
          <line id="Line_15-5" data-name="Line 15" x1="21.463" y2="21.463" transform="translate(269.269 1889.268)" fill="none" stroke="#d8f6ff" stroke-linecap="round" stroke-width="12"/>
        </g>
        <g id="Group_109-2" data-name="Group 109" transform="translate(19.731 13.732)">
          <line id="Line_14-6" data-name="Line 14" x2="52.021" y2="52.021" transform="translate(269.269 1889.268)" fill="none" stroke="#d8f6ff" stroke-linecap="round" stroke-width="21"/>
          <line id="Line_15-6" data-name="Line 15" x1="52.021" y2="52.021" transform="translate(269.269 1889.268)" fill="none" stroke="#d8f6ff" stroke-linecap="round" stroke-width="21"/>
        </g>
      </g>
      <g id="Group_115" data-name="Group 115" transform="translate(-90 5516)">
        <g id="Ellipse_20-109" data-name="Ellipse 20" transform="translate(231 1153)" fill="#d8f6ff" stroke="#bff1ff" stroke-width="5" opacity="0.37">
          <circle cx="16" cy="16" r="16" stroke="none"/>
          <circle cx="16" cy="16" r="13.5" fill="none"/>
        </g>
        <g id="Ellipse_20-110" data-name="Ellipse 20" transform="translate(269 1153)" fill="#d8f6ff" stroke="#bff1ff" stroke-width="5" opacity="0.37">
          <circle cx="16" cy="16" r="16" stroke="none"/>
          <circle cx="16" cy="16" r="13.5" fill="none"/>
        </g>
        <g id="Ellipse_20-111" data-name="Ellipse 20" transform="translate(306 1153)" fill="#d8f6ff" stroke="#bff1ff" stroke-width="5" opacity="0.37">
          <circle cx="16" cy="16" r="16" stroke="none"/>
          <circle cx="16" cy="16" r="13.5" fill="none"/>
        </g>
        <g id="Ellipse_20-112" data-name="Ellipse 20" transform="translate(344 1153)" fill="#d8f6ff" stroke="#bff1ff" stroke-width="5" opacity="0.37">
          <circle cx="16" cy="16" r="16" stroke="none"/>
          <circle cx="16" cy="16" r="13.5" fill="none"/>
        </g>
        <g id="Ellipse_20-113" data-name="Ellipse 20" transform="translate(381 1153)" fill="#d8f6ff" stroke="#bff1ff" stroke-width="5" opacity="0.37">
          <circle cx="16" cy="16" r="16" stroke="none"/>
          <circle cx="16" cy="16" r="13.5" fill="none"/>
        </g>
        <g id="Ellipse_20-114" data-name="Ellipse 20" transform="translate(419 1153)" fill="#d8f6ff" stroke="#bff1ff" stroke-width="5" opacity="0.37">
          <circle cx="16" cy="16" r="16" stroke="none"/>
          <circle cx="16" cy="16" r="13.5" fill="none"/>
        </g>
        <g id="Ellipse_20-115" data-name="Ellipse 20" transform="translate(231 1193)" fill="#d8f6ff" stroke="#bff1ff" stroke-width="5" opacity="0.37">
          <circle cx="16" cy="16" r="16" stroke="none"/>
          <circle cx="16" cy="16" r="13.5" fill="none"/>
        </g>
        <g id="Ellipse_20-116" data-name="Ellipse 20" transform="translate(269 1193)" fill="#d8f6ff" stroke="#bff1ff" stroke-width="5" opacity="0.37">
          <circle cx="16" cy="16" r="16" stroke="none"/>
          <circle cx="16" cy="16" r="13.5" fill="none"/>
        </g>
        <g id="Ellipse_20-117" data-name="Ellipse 20" transform="translate(306 1193)" fill="#d8f6ff" stroke="#bff1ff" stroke-width="5" opacity="0.37">
          <circle cx="16" cy="16" r="16" stroke="none"/>
          <circle cx="16" cy="16" r="13.5" fill="none"/>
        </g>
        <g id="Ellipse_20-118" data-name="Ellipse 20" transform="translate(344 1193)" fill="#d8f6ff" stroke="#bff1ff" stroke-width="5" opacity="0.37">
          <circle cx="16" cy="16" r="16" stroke="none"/>
          <circle cx="16" cy="16" r="13.5" fill="none"/>
        </g>
        <g id="Ellipse_20-119" data-name="Ellipse 20" transform="translate(381 1193)" fill="#d8f6ff" stroke="#bff1ff" stroke-width="5" opacity="0.37">
          <circle cx="16" cy="16" r="16" stroke="none"/>
          <circle cx="16" cy="16" r="13.5" fill="none"/>
        </g>
        <g id="Ellipse_20-120" data-name="Ellipse 20" transform="translate(419 1193)" fill="#d8f6ff" stroke="#bff1ff" stroke-width="5" opacity="0.37">
          <circle cx="16" cy="16" r="16" stroke="none"/>
          <circle cx="16" cy="16" r="13.5" fill="none"/>
        </g>
      </g>
    </g>
  </svg>
  